<?xml version="1.0" encoding="UTF-8" standalone="no"?>
<!DOCTYPE svg PUBLIC "-//W3C//DTD SVG 1.1//EN"
 "http://www.w3.org/Graphics/SVG/1.1/DTD/svg11.dtd">
<!-- Generated by graphviz version 2.47.1 (20210417.1919)
 -->
<!-- Pages: 1 -->
<svg width="158pt" height="92pt"
 viewBox="0.00 0.00 158.00 91.70" xmlns="http://www.w3.org/2000/svg" xmlns:xlink="http://www.w3.org/1999/xlink">
<g id="graph0" class="graph" transform="scale(1 1) rotate(0) translate(4 87.7)">
<polygon fill="white" stroke="transparent" points="-4,4 -4,-87.7 154,-87.7 154,4 -4,4"/>
<!-- &#45;1 -->
<g id="node1" class="node">
<title>&#45;1</title>
<polygon fill="lightgray" stroke="black" points="108,-83.7 84,-83.7 84,-65.7 108,-65.7 108,-83.7"/>
<text text-anchor="middle" x="96" y="-72.5" font-family="Times New Roman,serif" font-size="9.00">&#45;1</text>
</g>
<!-- 0 -->
<g id="node5" class="node">
<title>0</title>
<ellipse fill="lightblue" stroke="black" cx="51" cy="-14.85" rx="14.7" ry="14.7"/>
<text text-anchor="middle" x="51" y="-12.65" font-family="Times New Roman,serif" font-size="9.00">0</text>
</g>
<!-- &#45;1&#45;&gt;0 -->
<g id="edge1" class="edge">
<title>&#45;1&#45;&gt;0</title>
<path fill="none" stroke="red" stroke-width="0.43" d="M89.74,-65.65C83.63,-57.8 74.09,-45.53 66.01,-35.14"/>
<polygon fill="red" stroke="red" stroke-width="0.43" points="68.57,-32.74 59.67,-26.99 63.05,-37.04 68.57,-32.74"/>
</g>
<!-- 1 -->
<g id="node6" class="node">
<title>1</title>
<ellipse fill="lightblue" stroke="black" cx="99" cy="-14.85" rx="14.7" ry="14.7"/>
<text text-anchor="middle" x="99" y="-12.65" font-family="Times New Roman,serif" font-size="9.00">1</text>
</g>
<!-- &#45;1&#45;&gt;1 -->
<g id="edge2" class="edge">
<title>&#45;1&#45;&gt;1</title>
<path fill="none" stroke="green" stroke-width="0.26" d="M96.42,-65.65C96.76,-59.05 97.26,-49.33 97.74,-40.23"/>
<polygon fill="green" stroke="green" stroke-width="0.26" points="101.24,-40.22 98.26,-30.06 94.25,-39.86 101.24,-40.22"/>
</g>
<!-- &#45;2 -->
<g id="node2" class="node">
<title>&#45;2</title>
<polygon fill="lightgray" stroke="black" points="150,-83.7 126,-83.7 126,-65.7 150,-65.7 150,-83.7"/>
<text text-anchor="middle" x="138" y="-72.5" font-family="Times New Roman,serif" font-size="9.00">&#45;2</text>
</g>
<!-- &#45;2&#45;&gt;0 -->
<g id="edge3" class="edge">
<title>&#45;2&#45;&gt;0</title>
<path fill="none" stroke="green" stroke-width="0.58" d="M125.9,-65.65C111.88,-56.33 88.53,-40.8 71.62,-29.56"/>
<polygon fill="green" stroke="green" stroke-width="0.58" points="73.26,-26.45 62.99,-23.82 69.38,-32.28 73.26,-26.45"/>
</g>
<!-- &#45;2&#45;&gt;1 -->
<g id="edge4" class="edge">
<title>&#45;2&#45;&gt;1</title>
<path fill="none" stroke="green" stroke-width="0.38" d="M132.58,-65.65C127.46,-58.07 119.58,-46.37 112.74,-36.22"/>
<polygon fill="green" stroke="green" stroke-width="0.38" points="115.58,-34.18 107.09,-27.84 109.77,-38.09 115.58,-34.18"/>
</g>
<!-- &#45;3 -->
<g id="node3" class="node">
<title>&#45;3</title>
<polygon fill="lightgray" stroke="black" points="24,-83.7 0,-83.7 0,-65.7 24,-65.7 24,-83.7"/>
<text text-anchor="middle" x="12" y="-72.5" font-family="Times New Roman,serif" font-size="9.00">&#45;3</text>
</g>
<!-- &#45;3&#45;&gt;0 -->
<g id="edge5" class="edge">
<title>&#45;3&#45;&gt;0</title>
<path fill="none" stroke="red" stroke-width="0.37" d="M17.42,-65.65C22.54,-58.07 30.42,-46.37 37.26,-36.22"/>
<polygon fill="red" stroke="red" stroke-width="0.37" points="40.23,-38.09 42.91,-27.84 34.42,-34.18 40.23,-38.09"/>
</g>
<!-- &#45;3&#45;&gt;1 -->
<g id="edge6" class="edge">
<title>&#45;3&#45;&gt;1</title>
<path fill="none" stroke="red" stroke-width="0.3" d="M24.1,-65.65C38.12,-56.33 61.47,-40.8 78.38,-29.56"/>
<polygon fill="red" stroke="red" stroke-width="0.3" points="80.62,-32.28 87.01,-23.82 76.74,-26.45 80.62,-32.28"/>
</g>
<!-- &#45;4 -->
<g id="node4" class="node">
<title>&#45;4</title>
<polygon fill="lightgray" stroke="black" points="66,-83.7 42,-83.7 42,-65.7 66,-65.7 66,-83.7"/>
<text text-anchor="middle" x="54" y="-72.5" font-family="Times New Roman,serif" font-size="9.00">&#45;4</text>
</g>
<!-- &#45;4&#45;&gt;0 -->
<g id="edge7" class="edge">
<title>&#45;4&#45;&gt;0</title>
<path fill="none" stroke="red" stroke-width="0.38" d="M53.58,-65.65C53.24,-59.05 52.74,-49.33 52.26,-40.23"/>
<polygon fill="red" stroke="red" stroke-width="0.38" points="55.75,-39.86 51.74,-30.06 48.76,-40.22 55.75,-39.86"/>
</g>
<!-- &#45;4&#45;&gt;1 -->
<g id="edge8" class="edge">
<title>&#45;4&#45;&gt;1</title>
<path fill="none" stroke="red" stroke-width="0.14" d="M60.26,-65.65C66.37,-57.8 75.91,-45.53 83.99,-35.14"/>
<polygon fill="red" stroke="red" stroke-width="0.14" points="86.95,-37.04 90.33,-26.99 81.43,-32.74 86.95,-37.04"/>
</g>
</g>
</svg>
